<svg width="61" height="60" viewBox="0 0 61 60" fill="none" xmlns="http://www.w3.org/2000/svg">
<path d="M33 6.25V12.5C33 18.3925 33 21.3388 34.8305 23.1694C36.6612 25 39.6075 25 45.5 25H55.5" stroke="white" stroke-width="3.75"/>
<path d="M15.5 41.25L18.8333 45L25.5 37.5" stroke="white" stroke-width="3.75" stroke-linecap="round" stroke-linejoin="round"/>
<path d="M7.375 24.9999C7.375 23.9644 6.53553 23.1249 5.5 23.1249C4.46448 23.1249 3.625 23.9644 3.625 24.9999H7.375ZM53.625 34.9999C53.625 36.0354 54.4645 36.8749 55.5 36.8749C56.5355 36.8749 57.375 36.0354 57.375 34.9999H53.625ZM3.88773 14.8163C3.78638 15.8469 4.53963 16.7645 5.57018 16.8659C6.60075 16.9673 7.51835 16.214 7.61973 15.1834L3.88773 14.8163ZM57.1122 45.1834C57.2137 44.1529 56.4603 43.2351 55.4298 43.1339C54.3993 43.0326 53.4818 43.7859 53.3802 44.8164L57.1122 45.1834ZM35.5 53.1249H25.5V56.8749H35.5V53.1249ZM7.375 34.9999V24.9999H3.625V34.9999H7.375ZM53.625 33.9071V34.9999H57.375V33.9071H53.625ZM37.728 11.5277L47.625 20.4349L50.1335 17.6476L40.2368 8.74033L37.728 11.5277ZM57.375 33.9071C57.375 29.6861 57.4128 27.0136 56.3477 24.6223L52.9223 26.1479C53.5873 27.6411 53.625 29.3549 53.625 33.9071H57.375ZM47.625 20.4349C51.0085 23.4801 52.2573 24.6549 52.9223 26.1479L56.3477 24.6223C55.2827 22.2309 53.271 20.4712 50.1335 17.6476L47.625 20.4349ZM25.5745 6.87488C29.529 6.87488 31.0213 6.90383 32.3513 7.41421L33.6948 3.91313C31.5653 3.09593 29.245 3.12488 25.5745 3.12488V6.87488ZM40.2368 8.74033C37.5218 6.29683 35.8243 4.73023 33.6948 3.91313L32.3513 7.41421C33.6818 7.92471 34.8038 8.89578 37.728 11.5277L40.2368 8.74033ZM25.5 53.1249C20.733 53.1249 17.3463 53.1209 14.7771 52.7754C12.2619 52.4374 10.8128 51.8031 9.75475 50.7451L7.1031 53.3969C8.97403 55.2676 11.3464 56.0979 14.2775 56.4921C17.1546 56.8789 20.839 56.8749 25.5 56.8749V53.1249ZM3.625 34.9999C3.625 39.6609 3.62103 43.3454 4.00783 46.2224C4.4019 49.1534 5.2322 51.5259 7.1031 53.3969L9.75475 50.7451C8.69673 49.6871 8.06255 48.2379 7.7244 45.7229C7.37898 43.1536 7.375 39.7669 7.375 34.9999H3.625ZM35.5 56.8749C40.161 56.8749 43.8455 56.8789 46.7225 56.4921C49.6535 56.0979 52.026 55.2676 53.897 53.3969L51.2452 50.7451C50.1872 51.8031 48.738 52.4374 46.223 52.7754C43.6538 53.1209 40.267 53.1249 35.5 53.1249V56.8749ZM25.5745 3.12488C20.8885 3.12488 17.1861 3.12093 14.2972 3.50756C11.3558 3.90123 8.97548 4.73063 7.1031 6.60298L9.75475 9.25463C10.8113 8.19808 12.2649 7.56301 14.7946 7.22443C17.3769 6.87883 20.7828 6.87488 25.5745 6.87488V3.12488ZM7.61973 15.1834C7.92328 12.0975 8.57613 10.4333 9.75475 9.25463L7.1031 6.60298C5.01583 8.69028 4.2236 11.4017 3.88773 14.8163L7.61973 15.1834ZM53.3802 44.8164C53.0767 47.9021 52.4237 49.5664 51.2452 50.7451L53.897 53.3969C55.9843 51.3094 56.7765 48.5981 57.1122 45.1834L53.3802 44.8164Z" fill="white"/>
</svg>
