<svg width="61" height="60" viewBox="0 0 61 60" fill="none" xmlns="http://www.w3.org/2000/svg">
<path d="M43 27.05L35.275 31.16L38.225 42.5L30.5 35.325L22.775 42.5L25.725 31.16L18 27.05L27.55 26.58L30.5 17.5L33.45 26.58L43 27.05ZM33 10V5C33 4.33696 32.7366 3.70107 32.2678 3.23223C31.7989 2.76339 31.163 2.5 30.5 2.5C29.837 2.5 29.2011 2.76339 28.7322 3.23223C28.2634 3.70107 28 4.33696 28 5V10C28 10.663 28.2634 11.2989 28.7322 11.7678C29.2011 12.2366 29.837 12.5 30.5 12.5C31.163 12.5 31.7989 12.2366 32.2678 11.7678C32.7366 11.2989 33 10.663 33 10ZM28 50V55C28 55.663 28.2634 56.2989 28.7322 56.7678C29.2011 57.2366 29.837 57.5 30.5 57.5C31.163 57.5 31.7989 57.2366 32.2678 56.7678C32.7366 56.2989 33 55.663 33 55V50C33 49.337 32.7366 48.7011 32.2678 48.2322C31.7989 47.7634 31.163 47.5 30.5 47.5C29.837 47.5 29.2011 47.7634 28.7322 48.2322C28.2634 48.7011 28 49.337 28 50ZM49.945 10.555C49.4762 10.0863 48.8404 9.82303 48.1775 9.82303C47.5146 9.82303 46.8788 10.0863 46.41 10.555L42.875 14.09C42.6362 14.3206 42.4458 14.5965 42.3147 14.9015C42.1837 15.2065 42.1148 15.5345 42.1119 15.8665C42.109 16.1984 42.1722 16.5276 42.2979 16.8349C42.4237 17.1421 42.6093 17.4213 42.844 17.656C43.0787 17.8907 43.3579 18.0764 43.6651 18.2021C43.9724 18.3278 44.3016 18.391 44.6335 18.3881C44.9654 18.3852 45.2935 18.3163 45.5985 18.1853C45.9035 18.0542 46.1794 17.8638 46.41 17.625L49.945 14.09C50.4137 13.6212 50.677 12.9854 50.677 12.3225C50.677 11.6596 50.4137 11.0238 49.945 10.555ZM11.055 49.445C11.5238 49.9137 12.1596 50.177 12.8225 50.177C13.4854 50.177 14.1212 49.9137 14.59 49.445L18.125 45.91C18.5804 45.4385 18.8324 44.807 18.8267 44.1515C18.821 43.496 18.5581 42.869 18.0945 42.4055C17.631 41.9419 17.004 41.679 16.3485 41.6733C15.693 41.6676 15.0615 41.9196 14.59 42.375L11.055 45.91C10.5863 46.3788 10.323 47.0146 10.323 47.6775C10.323 48.3404 10.5863 48.9762 11.055 49.445ZM55.5 27.5H50.5C49.837 27.5 49.2011 27.7634 48.7322 28.2322C48.2634 28.7011 48 29.337 48 30C48 30.663 48.2634 31.2989 48.7322 31.7678C49.2011 32.2366 49.837 32.5 50.5 32.5H55.5C56.163 32.5 56.7989 32.2366 57.2678 31.7678C57.7366 31.2989 58 30.663 58 30C58 29.337 57.7366 28.7011 57.2678 28.2322C56.7989 27.7634 56.163 27.5 55.5 27.5ZM5.5 32.5H10.5C11.163 32.5 11.7989 32.2366 12.2678 31.7678C12.7366 31.2989 13 30.663 13 30C13 29.337 12.7366 28.7011 12.2678 28.2322C11.7989 27.7634 11.163 27.5 10.5 27.5H5.5C4.83696 27.5 4.20107 27.7634 3.73223 28.2322C3.26339 28.7011 3 29.337 3 30C3 30.663 3.26339 31.2989 3.73223 31.7678C4.20107 32.2366 4.83696 32.5 5.5 32.5ZM46.41 49.445C46.8815 49.9004 47.513 50.1524 48.1685 50.1467C48.824 50.141 49.451 49.8781 49.9145 49.4145C50.3781 48.951 50.641 48.324 50.6467 47.6685C50.6524 47.013 50.4004 46.3815 49.945 45.91L46.41 42.375C45.9385 41.9196 45.307 41.6676 44.6515 41.6733C43.996 41.679 43.369 41.9419 42.9055 42.4055C42.4419 42.869 42.179 43.496 42.1733 44.1515C42.1676 44.807 42.4196 45.4385 42.875 45.91L46.41 49.445ZM18.125 17.625C18.5937 17.1562 18.857 16.5204 18.857 15.8575C18.857 15.1946 18.5937 14.5588 18.125 14.09L14.59 10.555C14.1185 10.0996 13.487 9.84762 12.8315 9.85331C12.176 9.85901 11.549 10.1219 11.0855 10.5855C10.6219 11.049 10.359 11.676 10.3533 12.3315C10.3476 12.987 10.5996 13.6185 11.055 14.09L14.59 17.625C15.0588 18.0937 15.6946 18.357 16.3575 18.357C17.0204 18.357 17.6562 18.0937 18.125 17.625Z" fill="white"/>
</svg>
