<svg width="61" height="60" viewBox="0 0 61 60" fill="none" xmlns="http://www.w3.org/2000/svg">
<path d="M34.3691 16.614C32.8196 16.614 31.7044 17.9015 31.0769 18.8891C31.0152 18.9861 30.9297 19.0656 30.8287 19.1203C30.7276 19.175 30.6142 19.203 30.4993 19.2016C30.3844 19.2002 30.2717 19.1696 30.172 19.1125C30.0722 19.0554 29.9887 18.9738 29.9293 18.8754C29.3331 17.8896 28.2441 16.614 26.6006 16.614C24.4571 16.614 22.7195 18.295 22.7195 20.3686C22.7197 20.6023 22.7424 20.8354 22.7872 21.0648L22.7862 21.0652C22.788 21.0743 22.8105 21.1765 22.8205 21.2181C23.5977 24.5417 27.4439 27.55 29.3748 28.8799C29.7012 29.105 30.0883 29.2255 30.4848 29.2255C30.8813 29.2255 31.2684 29.105 31.5949 28.8799C33.5258 27.55 37.3719 24.5417 38.1492 21.2181C38.1591 21.1764 38.1816 21.0743 38.1835 21.0652L38.1825 21.0648C38.2272 20.8354 38.2499 20.6023 38.2502 20.3686C38.2502 18.295 36.5126 16.614 34.3691 16.614ZM34.0057 23.9496H32.5335L31.9475 25.3021C31.8757 25.4712 31.7556 25.6154 31.6021 25.7164C31.4487 25.8175 31.2688 25.871 31.0851 25.8702C31.0637 25.8702 31.0422 25.8695 31.0205 25.868C30.8261 25.8567 30.6401 25.7848 30.4886 25.6624C30.337 25.5401 30.2276 25.3734 30.1756 25.1857L29.3638 22.3389L28.8716 23.5464C28.8013 23.7203 28.6806 23.8691 28.525 23.9737C28.3694 24.0784 28.186 24.134 27.9985 24.1335H26.9277C26.7723 24.1335 26.6233 24.0718 26.5134 23.9619C26.4035 23.852 26.3418 23.703 26.3418 23.5476C26.3418 23.3922 26.4035 23.2432 26.5134 23.1333C26.6233 23.0234 26.7723 22.9617 26.9277 22.9617H27.8446L28.5291 21.2821C28.6031 21.1004 28.7319 20.9464 28.8977 20.8414C29.0634 20.7364 29.2578 20.6857 29.4537 20.6964C29.6496 20.7071 29.8372 20.7787 29.9905 20.9011C30.1438 21.0235 30.2551 21.1907 30.3089 21.3794L31.1269 24.2483L31.518 23.3457C31.5911 23.177 31.712 23.0333 31.8657 22.9324C32.0194 22.8315 32.1993 22.7777 32.3832 22.7778H34.0058C34.1612 22.7778 34.3102 22.8395 34.4201 22.9494C34.53 23.0593 34.5917 23.2083 34.5917 23.3637C34.5917 23.5191 34.53 23.6681 34.4201 23.778C34.3102 23.8879 34.1611 23.9496 34.0057 23.9496Z" fill="white"/>
<path d="M47.5131 44.4229L45.2966 38.0689C44.9501 37.0756 44.3032 36.2147 43.4455 35.6055C42.5878 34.9963 41.5618 34.669 40.5098 34.669H39.4272L41.5766 25.5491C42.632 21.069 42.0342 16.3585 39.8931 12.284C37.2129 7.18304 35.4616 4.13285 34.6877 3.2184C33.7547 2.11567 32.1902 1.45728 30.5028 1.45728C28.8153 1.45728 27.2509 2.11565 26.3179 3.2184C25.544 4.1329 23.7927 7.18309 21.1125 12.284C18.9714 16.3585 18.3736 21.069 19.429 25.5491L21.5784 34.669H20.4902C19.4381 34.669 18.4122 34.9963 17.5545 35.6055C16.6968 36.2147 16.0499 37.0756 15.7034 38.0689L13.4869 44.4229C13.4341 44.5741 13.4306 44.7382 13.4769 44.8915C13.5232 45.0448 13.6168 45.1796 13.7444 45.2764C13.872 45.3732 14.027 45.4271 14.1871 45.4304C14.3472 45.4336 14.5043 45.3861 14.6357 45.2945L19.1999 42.1159C20.05 41.5238 21.0612 41.2064 22.0972 41.2064H24.0273L23.6089 41.974C23.5327 42.1137 21.7559 45.4445 22.8845 49.52L22.8849 49.5218C23.2844 50.9465 23.8248 52.3279 24.498 53.6455C24.6312 53.906 24.8339 54.1245 25.0836 54.2769C25.3334 54.4292 25.6205 54.5094 25.9131 54.5086H25.9169C26.2112 54.5087 26.4997 54.4271 26.7504 54.2729C27.0011 54.1188 27.204 53.8981 27.3367 53.6354L27.5849 53.1467C27.6003 53.1136 27.6255 53.0859 27.657 53.0673C27.6885 53.0488 27.7249 53.0403 27.7614 53.0429C27.7961 53.0426 27.8301 53.0527 27.8589 53.072C27.8877 53.0913 27.9101 53.1189 27.923 53.1511C28.6844 54.8639 29.6891 56.4578 30.906 57.8835C31.0766 58.0894 31.2904 58.2552 31.5323 58.3692C31.7742 58.4832 32.0382 58.5425 32.3056 58.543C32.7917 58.5423 33.2581 58.3504 33.6039 58.0087C33.9497 57.6671 34.1473 57.2031 34.1539 56.7171C34.1779 55.138 34.5899 53.8613 35.3787 52.9224C38.648 49.0301 38.5015 45.2758 38.4737 44.8572C38.461 43.5377 38.0233 42.2574 37.2254 41.2064H38.9028C39.9388 41.2064 40.95 41.5238 41.8001 42.1159L46.3643 45.2945C46.4958 45.386 46.6528 45.4336 46.8129 45.4303C46.973 45.427 47.128 45.3731 47.2556 45.2763C47.3831 45.1795 47.4768 45.0448 47.523 44.8915C47.5693 44.7381 47.5658 44.5741 47.5131 44.4229ZM36.8237 47.13C36.5387 48.3295 35.8699 50.151 34.3018 52.0179C33.2995 53.211 32.7767 54.7849 32.7478 56.6958C32.7496 56.7872 32.7221 56.8767 32.6693 56.9513C32.6164 57.0259 32.5411 57.0816 32.4543 57.1102C32.3721 57.1416 32.282 57.1459 32.1972 57.1224C32.1124 57.0989 32.0373 57.0488 31.983 56.9796C30.8534 55.6577 29.9205 54.1798 29.213 52.5915C29.0943 52.3141 28.8983 52.0767 28.6485 51.9076C28.3987 51.7384 28.1055 51.6447 27.8039 51.6374C27.787 51.637 27.7702 51.6366 27.7534 51.6366C27.4585 51.6352 27.1691 51.7162 26.9177 51.8705C26.6664 52.0248 26.4632 52.2463 26.331 52.5099L26.0828 52.9985C26.0678 53.0304 26.0438 53.0573 26.0137 53.0757C25.9837 53.0942 25.9488 53.1035 25.9136 53.1024H25.913C25.8788 53.1036 25.8451 53.0948 25.8159 53.077C25.7866 53.0593 25.7632 53.0334 25.7485 53.0026C25.1188 51.7698 24.6134 50.4775 24.2396 49.1447C23.3246 45.8405 24.6539 43.0244 24.8258 42.6818L24.8443 42.6477C25.1435 42.105 25.5335 41.6176 25.9972 41.2065L28.1638 41.2135C27.8111 41.5363 27.5296 41.929 27.3371 42.3666C27.1447 42.8042 27.0455 43.2771 27.046 43.7552C27.046 43.8216 27.0484 43.8875 27.0521 43.953C27.1321 45.8167 28.418 47.4942 29.3952 48.5088C29.5377 48.6569 29.7086 48.7748 29.8977 48.8553C30.0868 48.9358 30.2902 48.9772 30.4957 48.9772C30.7012 48.9772 30.9046 48.9358 31.0937 48.8553C31.2828 48.7748 31.4537 48.6569 31.5962 48.5088C32.5732 47.4944 33.8589 45.8172 33.9392 43.9536C33.9429 43.8879 33.9453 43.8218 33.9453 43.7552C33.9458 43.2771 33.8466 42.8042 33.6542 42.3666C33.4617 41.929 33.1802 41.5363 32.8275 41.2135L35.3342 41.2065C36.4073 42.1698 37.0675 43.4622 37.0675 44.8836L37.0698 44.9407C37.0705 44.9494 37.1338 45.8248 36.8237 47.13ZM37.3146 37.5029C37.1619 38.1597 36.7909 38.7452 36.2622 39.1638C35.7335 39.5824 35.0785 39.8092 34.4042 39.8072H31.5518V38.1061C31.5518 37.8264 31.4407 37.5581 31.2429 37.3604C31.0451 37.1626 30.7769 37.0514 30.4971 37.0514C30.2174 37.0514 29.9491 37.1626 29.7514 37.3604C29.5536 37.5581 29.4424 37.8264 29.4424 38.1061V39.8072H26.6015C25.9272 39.8092 25.2721 39.5824 24.7434 39.1638C24.2148 38.7452 23.8437 38.1597 23.691 37.5029L20.7977 25.2266C19.8201 21.0763 20.3739 16.7126 22.3574 12.9382C23.5273 10.7117 24.4363 9.0369 25.1429 7.77656C25.4345 7.96233 25.7428 8.12062 26.0638 8.24939C27.2591 8.73689 28.8341 9.00642 30.497 9.00642C30.6834 9.00642 30.8623 8.93234 30.9942 8.80048C31.126 8.66862 31.2001 8.48978 31.2001 8.3033C31.2001 8.11682 31.126 7.93798 30.9942 7.80611C30.8623 7.67425 30.6834 7.60017 30.497 7.60017C28.1934 7.60017 26.6093 7.07049 25.8407 6.55152C26.7369 5.00754 27.1775 4.37952 27.3913 4.12678C28.0607 3.33565 29.2239 2.8635 30.5027 2.8635C31.7816 2.8635 32.9449 3.33569 33.6143 4.12678C33.8279 4.37926 34.2677 5.00625 35.1621 6.5468C34.6275 6.88097 34.0404 7.12259 33.4254 7.26149C33.2592 7.30343 33.114 7.40463 33.0172 7.54608C32.9204 7.68752 32.8785 7.85947 32.8995 8.02959C32.9205 8.19972 33.003 8.35631 33.1313 8.46994C33.2597 8.58357 33.4251 8.64641 33.5965 8.64665C33.655 8.64656 33.7132 8.63948 33.77 8.62555C34.5079 8.45466 35.2138 8.16697 35.8609 7.77334C36.5677 9.03403 37.4773 10.7098 38.6481 12.9381C40.6316 16.7126 41.1855 21.0763 40.2079 25.2266L37.3146 37.5029Z" fill="white"/>
</svg>
