<svg width="61" height="60" viewBox="0 0 61 60" fill="none" xmlns="http://www.w3.org/2000/svg">
<path d="M24.0312 26.625L24.5 26.9297L25.0391 26.7422C27.6172 25.7812 30.6641 25.5234 32.2578 25.4766H32.4687V33.75C32.4687 34.3828 32.9844 34.875 33.5937 34.875C34.2031 34.875 34.7188 34.3594 34.7188 33.75V25.4297H34.9297C36.875 25.5234 39.7109 25.8047 42.1484 26.6953L42.6875 26.8828L43.1562 26.5781C46.7188 24.3047 51.6641 23.1562 56.7266 23.3906L58.1562 23.4609L57.8984 22.0547C56.1875 12.6797 45.9688 6.28125 37.2266 5.01562C36.5469 4.92187 35.8203 4.85156 35.0703 4.82812C34.9531 4.82812 34.8359 4.82812 34.7422 4.82812V2.83594C34.7422 2.20313 34.2266 1.71094 33.6172 1.71094C33.0078 1.71094 32.4922 2.22656 32.4922 2.83594V4.82812C32.3984 4.82812 32.3047 4.82812 32.1875 4.82812C31.3906 4.85156 30.6641 4.92187 29.9844 5.01562C21.2188 6.32812 11 12.7266 9.28906 22.0781L9.03125 23.4844L10.4609 23.4141C15.5234 23.1797 20.4688 24.3516 24.0312 26.625ZM30.2891 7.3125C30.8984 7.21875 31.5313 7.17188 32.2813 7.14844C33.1484 7.10156 34.0391 7.10156 34.9531 7.14844C35.6562 7.17188 36.2891 7.21875 36.8984 7.3125C44.4219 8.39063 53.1172 13.5469 55.3438 21.1406C50.5156 21.1406 45.9922 22.2891 42.4062 24.4219C39.8281 23.5547 36.9922 23.2734 35.0469 23.2031L34.3203 23.1797C34.0625 23.1797 33.8281 23.1797 33.6641 23.1797H33.5469C33.3594 23.1797 33.1484 23.1797 32.9141 23.1797L32.1641 23.2031C30.1953 23.2969 27.3594 23.5781 24.7812 24.4219C21.1953 22.2891 16.6719 21.1406 11.8438 21.1406C14.0703 13.5469 22.7656 8.39063 30.2891 7.3125Z" fill="white"/>
<path d="M53 38.0391L38.9844 43.9219C38.3984 44.1562 38.1406 44.8359 38.375 45.3984C38.6094 45.9844 39.2891 46.2422 39.8516 46.0078L53.8672 40.125C54.4766 39.8672 55.1562 40.0547 55.5547 40.5469C55.8125 40.875 55.9297 41.2734 55.8594 41.6719C55.7891 42.0938 55.5547 42.4453 55.2031 42.6562C49.0859 46.6406 35.1875 54.5156 34.5312 54.8906C34.5078 54.9141 34.4844 54.9141 34.4609 54.9375C32.7734 55.9453 30.875 56.2031 28.4844 55.7812C28.3438 55.7578 25.1094 55.3594 17.4453 54.4219L13.5078 53.9297V38.625C14.1406 38.5781 14.7031 38.5547 14.9375 38.5547H15.0781C20.3516 38.2266 25.4141 39.2344 30.7578 40.3125C31.4375 40.4531 32.1172 40.5938 32.8203 40.7344C33.5469 40.875 34.0859 41.5078 34.0859 42.2578C34.0859 42.3047 34.0859 42.3516 34.0625 42.4453C34.0156 42.8672 33.7812 43.1719 33.6172 43.3594C33.3359 43.6406 32.9375 43.8047 32.5156 43.8047H21.8516C21.2188 43.8047 20.7266 44.3203 20.7266 44.9297C20.7266 45.5391 21.2422 46.0547 21.8516 46.0547H32.5625C33.5703 46.0547 34.5547 45.6562 35.2812 44.9297C35.8906 44.2969 36.2656 43.5234 36.3594 42.7266C36.3828 42.5625 36.4062 42.3984 36.4062 42.2109C36.4062 40.3828 35.1172 38.8125 33.3125 38.4609C32.6328 38.3203 31.9531 38.1797 31.2734 38.0391C26.0234 36.9844 20.5859 35.8828 15.0078 36.2344H14.8906C14.6328 36.2344 14.1172 36.2812 13.5078 36.3047C13.3672 35.8125 12.9453 35.4609 12.4297 35.4609H3.99219C3.35937 35.4609 2.86719 35.9766 2.86719 36.5859V55.6641C2.86719 56.2969 3.38281 56.7891 3.99219 56.7891H12.4297C12.875 56.7891 13.2734 56.5078 13.4609 56.1328L17.2344 56.6016C21.7344 57.1641 27.8984 57.9141 28.1562 57.9375C29 58.0781 29.7969 58.1719 30.5703 58.1719C32.4453 58.1719 34.1094 57.7266 35.6328 56.8359C35.6562 56.8359 35.6562 56.8125 35.6797 56.8125C35.8203 56.7422 50.2109 48.6094 56.4922 44.5078C57.3828 43.9219 57.9687 43.0078 58.1328 41.9766C58.2969 40.9453 58.0156 39.8906 57.3594 39.0703C56.2812 37.8281 54.5469 37.3828 53 38.0391ZM11.2812 54.6328H5.09375V37.8281H11.2812V54.6328Z" fill="white"/>
</svg>
