<svg width="61" height="60" viewBox="0 0 61 60" fill="none" xmlns="http://www.w3.org/2000/svg">
<g clip-path="url(#clip0_14_1039)">
<path d="M42.223 3.46143C32.4153 3.46143 24.4076 11.446 24.4076 21.2768C24.4076 22.1307 24.4768 22.9614 24.5922 23.7691C22.5614 22.9153 20.346 22.4537 17.9922 22.4537C8.62297 22.4307 0.961426 30.0922 0.961426 39.4845C0.961426 48.8768 8.62296 56.5383 18.0153 56.5383C27.4076 56.5383 35.0691 48.8768 35.0691 39.4845C35.0691 38.8153 35.023 38.146 34.9537 37.4999C37.1691 38.4922 39.6383 39.0691 42.246 39.0691C52.0537 39.0691 60.0614 31.0845 60.0614 21.2537C60.0383 11.446 52.0537 3.46143 42.223 3.46143ZM43.7691 18.346C45.1999 18.346 46.3537 19.4999 46.3537 20.9307C46.3537 22.3614 45.1999 23.5153 43.7691 23.5153C42.3383 23.5153 41.1845 22.3614 41.1845 20.9307C41.1845 19.523 42.3383 18.346 43.7691 18.346ZM32.946 14.0999L33.6384 15.8537L27.9153 18.1383L27.223 16.3845L32.946 14.0999ZM18.0153 53.4922C10.3076 53.4922 4.00758 47.2153 4.00758 39.4845C4.00758 31.7768 10.2845 25.4768 18.0153 25.4768C25.746 25.4768 32.023 31.7537 32.023 39.4845C32.023 47.2153 25.723 53.4922 18.0153 53.4922ZM32.3691 23.8384C30.9384 23.8384 29.7845 22.6845 29.7845 21.2537C29.7845 19.823 30.9384 18.6691 32.3691 18.6691C33.7999 18.6691 34.9537 19.823 34.9537 21.2537C34.9537 22.6845 33.7999 23.8384 32.3691 23.8384ZM46.423 31.2691C42.546 30.646 40.0768 32.123 38.6922 33.4845L37.0076 31.7537C38.8076 30.023 41.946 28.1076 46.8153 28.8922L46.423 31.2691ZM47.7845 17.5845L42.0614 15.2999L42.7537 13.546L48.4768 15.8307L47.7845 17.5845ZM12.546 33.5999C13.9768 33.5999 15.1307 34.7537 15.1307 36.1845C15.1307 37.6153 13.9768 38.7691 12.546 38.7691C11.1153 38.7691 9.96143 37.6153 9.96143 36.1845C9.96143 34.7537 11.1153 33.5999 12.546 33.5999ZM23.5076 33.5999C24.9383 33.5999 26.0922 34.7537 26.0922 36.1845C26.0922 37.6153 24.9383 38.7691 23.5076 38.7691C22.0768 38.7691 20.923 37.6153 20.923 36.1845C20.923 34.7537 22.0768 33.5999 23.5076 33.5999ZM22.6999 46.5922H13.2153V44.1691H22.723V46.5922H22.6999Z" fill="white"/>
</g>
<defs>
<clipPath id="clip0_14_1039">
<rect width="60" height="60" fill="white" transform="translate(0.5)"/>
</clipPath>
</defs>
</svg>
