<svg width="27" height="27" viewBox="0 0 27 27" fill="none" xmlns="http://www.w3.org/2000/svg">
<path d="M11.25 21.375H6.975C5.71489 21.375 5.08482 21.375 4.60352 21.1297C4.18015 20.9141 3.83595 20.5698 3.62024 20.1465C3.375 19.6652 3.375 19.0351 3.375 17.775V9.225C3.375 7.96489 3.375 7.33482 3.62024 6.85352C3.83595 6.43015 4.18015 6.08595 4.60352 5.87024C5.08482 5.625 5.71489 5.625 6.975 5.625H20.025C21.2851 5.625 21.9152 5.625 22.3965 5.87024C22.8198 6.08595 23.1641 6.43015 23.3797 6.85352C23.625 7.33482 23.625 7.96489 23.625 9.225V11.25M23.1825 9.29508L17.4936 13.0877C16.0503 14.0499 15.3286 14.5311 14.5485 14.718C13.8591 14.8832 13.1405 14.8832 12.4512 14.718C11.6711 14.5311 10.9494 14.0499 9.50597 13.0877L3.54089 9.11096M15.75 23.625L18.0281 23.1694C18.2267 23.1297 18.326 23.1098 18.4186 23.0734C18.5009 23.0412 18.579 22.9994 18.6514 22.9489C18.7331 22.892 18.8046 22.8204 18.9479 22.6771L23.625 18C24.2463 17.3787 24.2463 16.3713 23.625 15.75C23.0037 15.1287 21.9963 15.1287 21.375 15.75L16.6979 20.4271C16.5546 20.5704 16.483 20.6419 16.4261 20.7236C16.3756 20.796 16.3338 20.8741 16.3016 20.9564C16.2653 21.049 16.2453 21.1483 16.2056 21.3469L15.75 23.625Z" stroke="#F6AD22" stroke-linecap="round" stroke-linejoin="round"/>
</svg>
