<svg width="26" height="26" viewBox="0 0 26 26" fill="none" xmlns="http://www.w3.org/2000/svg">
<path d="M18.4167 13C21.4082 13 23.8333 10.5749 23.8333 7.58333C23.8333 4.59179 21.4082 2.16666 18.4167 2.16666C15.4251 2.16666 13 4.59179 13 7.58333C13 8.44982 13.2034 9.2688 13.5652 9.99509C13.6614 10.1881 13.6933 10.4087 13.6377 10.617L13.315 11.8227C13.175 12.3462 13.6538 12.825 14.1773 12.685L15.383 12.3623C15.5913 12.3067 15.8119 12.3386 16.0049 12.4348C16.7312 12.7965 17.5502 13 18.4167 13Z" stroke="#F6AD22"/>
<path d="M8.70735 7.92585L9.41044 9.18569C10.045 10.3226 9.79024 11.8141 8.7909 12.8135C8.7909 12.8135 7.57883 14.0257 9.77651 16.2235C11.9735 18.4205 13.1865 17.2091 13.1865 17.2091C14.1859 16.2097 15.6773 15.955 16.8143 16.5895L18.0741 17.2926C19.7909 18.2507 19.9936 20.6583 18.4847 22.1674C17.5779 23.0741 16.4671 23.7797 15.2391 23.8262C13.172 23.9046 9.66143 23.3815 6.13997 19.86C2.61852 16.3385 2.09536 12.828 2.17372 10.7608C2.22027 9.5329 2.92583 8.42208 3.83259 7.51533C5.34162 6.0063 7.74923 6.20906 8.70735 7.92585Z" stroke="#F6AD22" stroke-linecap="round"/>
</svg>
