<svg width="13" height="18" viewBox="0 0 13 18" fill="none" xmlns="http://www.w3.org/2000/svg">
<path d="M0.166578 1.54597L0.166577 16.546C0.167053 16.6978 0.208939 16.8467 0.287725 16.9765C0.366512 17.1064 0.479214 17.2123 0.613704 17.2828C0.748194 17.3533 0.899377 17.3859 1.05098 17.3769C1.20258 17.3679 1.34886 17.3177 1.47408 17.2318L12.3074 9.7318C12.7566 9.42097 12.7566 8.67264 12.3074 8.36097L1.47408 0.860969C1.34913 0.774157 1.20277 0.723248 1.05092 0.713773C0.89906 0.704299 0.747513 0.736622 0.612738 0.807231C0.477964 0.877839 0.365116 0.984032 0.286458 1.11427C0.207799 1.24451 0.166338 1.39382 0.166578 1.54597ZM10.3691 9.04597L1.83324 14.956L1.83324 3.13597L10.3691 9.04597Z" fill="#F6AD22"/>
</svg>
